<svg width="100" height="100" viewBox="0 0 100 100" fill="none" xmlns="http://www.w3.org/2000/svg">
<path d="M50 0C40.1109 -1.17926e-07 30.4439 2.93245 22.2215 8.42652C13.999 13.9206 7.59041 21.7295 3.80603 30.8658C0.0216434 40.0021 -0.968525 50.0555 0.960734 59.7545C2.88999 69.4536 7.65203 78.3627 14.6447 85.3553C21.6373 92.348 30.5464 97.11 40.2455 99.0393C49.9445 100.969 59.9978 99.9784 69.1342 96.194C78.2705 92.4096 86.0794 86.001 91.5735 77.7785C97.0675 69.5561 100 59.8891 100 50L75 50C75 54.9445 73.5338 59.778 70.7867 63.8893C68.0397 68.0005 64.1352 71.2048 59.5671 73.097C54.9989 74.9892 49.9723 75.4843 45.1227 74.5196C40.2732 73.555 35.8186 71.174 32.3223 67.6777C28.826 64.1814 26.445 59.7268 25.4804 54.8773C24.5157 50.0277 25.0108 45.0011 26.903 40.4329C28.7952 35.8648 31.9995 31.9603 36.1107 29.2133C40.222 26.4662 45.0555 25 50 25L50 0Z" fill="white"/>
<path d="M50 0C43.4339 -7.82999e-08 36.9321 1.29329 30.8658 3.80602C24.7995 6.31876 19.2876 10.0017 14.6447 14.6447C10.0017 19.2876 6.31876 24.7996 3.80602 30.8658C1.29329 36.9321 -9.91452e-07 43.4339 0 50L25 50C25 46.717 25.6466 43.4661 26.903 40.4329C28.1594 37.3998 30.0009 34.6438 32.3223 32.3223C34.6438 30.0009 37.3998 28.1594 40.4329 26.903C43.4661 25.6466 46.717 25 50 25L50 0Z" fill="#5CE1E6"/>
<circle cx="50" cy="50" r="15.625" fill="#5CE1E6"/>
<path d="M65.625 50C65.625 47.9481 65.2208 45.9163 64.4356 44.0206C63.6504 42.1249 62.4995 40.4024 61.0485 38.9515C59.5976 37.5005 57.8751 36.3496 55.9794 35.5644C54.0837 34.7792 52.0519 34.375 50 34.375C47.9481 34.375 45.9163 34.7792 44.0206 35.5644C42.1249 36.3496 40.4024 37.5005 38.9515 38.9515C37.5005 40.4024 36.3496 42.1249 35.5644 44.0206C34.7792 45.9163 34.375 47.9481 34.375 50L50 50H65.625Z" fill="white"/>
</svg>
